PathFileType	4	(X/Y/Z)	9_coords_data.trc
DataRate	CameraRate	NumFrames	NumMarkers	Units	OrigDataRate	OrigDataStartFrame	OrigNumFrames
30.0	30.0	5	21	m	30.0	41	50
Frame#	Time	THUMB_TIP	THUMB_IP	THUMB_MCP	THUMB_CMC	INDEX_TIP	INDEX_DIP	INDEX_PIP	INDEX_MCP	MIDDLE_TIP	MIDDLE_DIP	MIDDLE_PIP	MIDDLE_MCP	RING_TIP	RING_DIP	RING_PIP	RING_MCP	PINKY_TIP	PINKY_DIP	PINKY_PIP	PINKY_MCP	WRIST
X1	Y1	Z1	X2	Y2	Z2	X3	Y3	Z3	X4	Y4	Z4	X5	Y5	Z5	X6	Y6	Z6	X7	Y7	Z7	X8	Y8	Z8	X9	Y9	Z9	X10	Y10	Z10	X11	Y11	Z11	X12	Y12	Z12	X13	Y13	Z13	X14	Y14	Z14	X15	Y15	Z15	X16	Y16	Z16	X17	Y17	Z17	X18	Y18	Z18	X19	Y19	Z19	X20	Y20	Z20	X21	Y21	Z21
40	1.3333333333333333	-0.005706669807434082	-0.07628970336914062	1.03043994140625	-0.01182900047302246	-0.05720090103149414	1.0480999755859375	-0.024687400817871095	-0.044122200012207034	1.0729100341796876	-0.03867210006713867	-0.018210599899291992	1.0953900146484374	-0.006675479888916015	-0.015161000251770019	0.9554390258789063	-0.014055100440979004	-0.017138999938964845	0.976822021484375	-0.022968700408935547	-0.019121000289916992	0.997926025390625	-0.03340190124511719	-0.01938800048828125	1.0364100341796876	-0.01584109973907471	0.02804439926147461	0.9461519775390625	-0.021013599395751953	0.020300100326538086	0.9691790161132813	-0.032257999420166016	0.011875200271606445	0.9959520263671875	-0.042433998107910154	0.0019160699844360351	1.03575	-0.020612600326538087	0.052442600250244144	0.962989990234375	-0.029112600326538087	0.045070999145507815	0.9848410034179688	-0.040563400268554685	0.0350906982421875	1.0086199951171875	-0.05002799987792969	0.021704500198364257	1.044510009765625	-0.025167499542236328	0.07713619995117188	1.012260009765625	-0.03639519882202148	0.06824549865722657	1.0261500244140624	-0.04650030136108398	0.05858399963378906	1.0388599853515625	-0.05360940170288086	0.04078300094604492	1.060719970703125	-0.07226329803466797	-0.006847300052642822	1.1169300537109375
41	1.3666666666666667	-0.001929530024528503	-0.07425309753417969	1.031239990234375	-0.009661410331726074	-0.055937801361083984	1.04927001953125	-0.02383370018005371	-0.04323490142822266	1.0734599609375	-0.03851369857788086	-0.017659400939941405	1.0954100341796875	-0.0080623197555542	-0.014916399955749511	0.955094970703125	-0.015206899642944336	-0.01689430046081543	0.9764730224609375	-0.02387700080871582	-0.01884410095214844	0.9976719970703125	-0.03371760177612305	-0.018926900863647463	1.036300048828125	-0.016853300094604493	0.02855579948425293	0.9461389770507812	-0.022547700881958007	0.020700899124145508	0.9690189819335937	-0.03398860168457031	0.012157400131225586	0.995677001953125	-0.04319589996337891	0.0023243799209594724	1.0354300537109375	-0.021057199478149415	0.05384719848632812	0.963458984375	-0.030158300399780274	0.04613980102539063	0.9850609741210937	-0.04197430038452148	0.03586389923095703	1.008530029296875	-0.0509375	0.02219379997253418	1.0440899658203124	-0.026289600372314453	0.07928510284423829	1.0131500244140625	-0.03744940185546875	0.06991549682617187	1.0268399658203125	-0.04746730041503906	0.05983829879760742	1.03922998046875	-0.054499900817871094	0.04126689910888672	1.0603499755859376	-0.07254029846191407	-0.006374199867248535	1.1171300048828126
42	1.4	-0.001020190000534057	-0.07320680236816406	1.0313399658203124	-0.009280190467834473	-0.055321098327636715	1.049510009765625	-0.02376180076599121	-0.0427421989440918	1.073510009765625	-0.03876279830932617	-0.017106300354003907	1.0951400146484376	-0.008198880195617675	-0.013663900375366212	0.9552780151367187	-0.015781499862670897	-0.01599829959869385	0.9765659790039063	-0.024723899841308593	-0.018257400512695313	0.9976119995117188	-0.03434960174560547	-0.018582300186157228	1.0362099609375	-0.01625480079650879	0.029413400650024416	0.94675	-0.022844999313354493	0.02140250015258789	0.9692659912109375	-0.03501549911499023	0.012662799835205078	0.9954769897460938	-0.04402640151977539	0.002692509889602661	1.0353199462890625	-0.020060300827026367	0.0553484992980957	0.964489013671875	-0.029975799560546874	0.04739550018310547	0.9856119995117187	-0.04252840042114258	0.03686650085449219	1.0085999755859374	-0.05164540100097656	0.02268440055847168	1.0439100341796874	-0.026314599990844727	0.0802782974243164	1.0140999755859375	-0.03789979934692383	0.07085260009765625	1.0273599853515625	-0.0481885986328125	0.06065349960327148	1.039550048828125	-0.0550359001159668	0.041791801452636716	1.060280029296875	-0.07274099731445313	-0.005918749809265137	1.11731005859375
43	1.4333333333333333	-0.0018118100166320801	-0.07303849792480469	1.03093994140625	-0.010105799674987793	-0.05535210037231445	1.0492900390625	-0.02449720001220703	-0.04275910186767578	1.0733499755859375	-0.039332500457763674	-0.01688479995727539	1.0951300048828125	-0.007983190059661865	-0.012317099571228028	0.956031982421875	-0.016624200820922853	-0.015314900398254394	0.9767219848632812	-0.02623390007019043	-0.018045499801635743	0.9973170166015625	-0.03558589935302734	-0.018686399459838868	1.035989990234375	-0.015624099731445313	0.030262699127197267	0.9474550170898437	-0.023043699264526367	0.022059499740600588	0.9696270141601563	-0.03590829849243164	0.013097599983215332	0.9954739990234375	-0.0449275016784668	0.002788959980010986	1.035239990234375	-0.019326200485229494	0.05579040145874024	0.9651279907226562	-0.02966379928588867	0.047792701721191405	0.9859769897460937	-0.04279290008544922	0.03722359848022461	1.008719970703125	-0.05233929824829102	0.022861799240112304	1.04393994140625	-0.025327999114990233	0.08014990234375	1.0146500244140626	-0.03726869964599609	0.07090460205078125	1.0276600341796875	-0.04791429901123047	0.060795299530029295	1.039760009765625	-0.05517229843139648	0.04200180053710938	1.0603399658203125	-0.07301840209960937	-0.00577377986907959	1.1168699951171874
44	1.4666666666666666	-0.001865350008010864	-0.07258039855957031	1.030780029296875	-0.010462900161743165	-0.05517850112915039	1.04922998046875	-0.024873199462890624	-0.042650100708007815	1.07327001953125	-0.04014640045166016	-0.01697610092163086	1.09547998046875	-0.008012149810791016	-0.0113927001953125	0.9567650146484376	-0.017599300384521486	-0.01493970012664795	0.976822998046875	-0.027797800064086914	-0.018106800079345703	0.9970540161132813	-0.036776500701904295	-0.0189468994140625	1.0357900390625	-0.01527970027923584	0.03024799919128418	0.9479940185546875	-0.023576799392700194	0.02197319984436035	0.9697269897460937	-0.03705120086669922	0.012942099571228027	0.9950919799804687	-0.04629029846191406	0.002546169996261596	1.035010009765625	-0.018910499572753908	0.0557859001159668	0.9656079711914063	-0.0298031005859375	0.04776340103149414	0.9861259765625	-0.043565700531005856	0.03719060134887695	1.008530029296875	-0.05338890075683594	0.022724300384521483	1.0436199951171874	-0.02518239974975586	0.07968930053710938	1.0147999877929688	-0.037548999786376956	0.07066400146484375	1.0275400390625	-0.048469898223876956	0.06069150161743164	1.0395400390625	-0.05603969955444336	0.04182329940795899	1.05993994140625	-0.07333270263671875	-0.005630630016326904	1.1171300048828126
